STARTFONT 2.1
FONT -Pixel Font Studio-Demo Pixel 0-Regular-R-Normal-Sans Serif-11-110-75-75-P-110-ISO10646-1
SIZE 11 75 75
FONTBOUNDINGBOX 11 15 0 -4
STARTPROPERTIES 22
FOUNDRY "Pixel Font Studio"
FAMILY_NAME "Demo Pixel 0"
WEIGHT_NAME "Regular"
SLANT "R"
SETWIDTH_NAME "Normal"
ADD_STYLE_NAME "Sans Serif"
PIXEL_SIZE 11
POINT_SIZE 110
RESOLUTION_X 75
RESOLUTION_Y 75
SPACING "P"
AVERAGE_WIDTH 110
CHARSET_REGISTRY "ISO10646"
CHARSET_ENCODING "1"
DEFAULT_CHAR 65534
FONT_ASCENT 11
FONT_DESCENT 4
X_HEIGHT 5
CAP_HEIGHT 7
FONT_VERSION "1.0.0"
COPYRIGHT "Copyright (c) TakWolf"
LICENSE "This Font Software is licensed under the SIL Open Font License, Version 1.1."
ENDPROPERTIES
CHARS 96
STARTCHAR uni0020
ENCODING 32
SWIDTH 1000 0
DWIDTH 11 0
BBX 15 15 -3 -4
BITMAP
0000
0000
0000
0000
0000
0000
0000
0000
0000
0000
0000
0000
0000
0000
0000
ENDCHAR
STARTCHAR uni0021
ENCODING 33
SWIDTH 1000 0
DWIDTH 11 0
BBX 15 15 -3 -4
BITMAP
0000
0000
0000
0000
4000
4000
4000
4000
4000
0000
4000
0000
0000
0000
0000
ENDCHAR
STARTCHAR uni0022
ENCODING 34
SWIDTH 1000 0
DWIDTH 11 0
BBX 15 15 -3 -4
BITMAP
0000
0000
0000
0000
5000
5000
0000
0000
0000
0000
0000
0000
0000
0000
0000
ENDCHAR
STARTCHAR uni0023
ENCODING 35
SWIDTH 1000 0
DWIDTH 11 0
BBX 15 15 -3 -4
BITMAP
0000
0000
0000
0000
5000
F800
5000
5000
5000
F800
5000
0000
0000
0000
0000
ENDCHAR
STARTCHAR uni0024
ENCODING 36
SWIDTH 1000 0
DWIDTH 11 0
BBX 15 15 -3 -4
BITMAP
0000
0000
0000
2000
7000
A800
A000
7000
2800
A800
7000
2000
0000
0000
0000
ENDCHAR
STARTCHAR uni0025
ENCODING 37
SWIDTH 1000 0
DWIDTH 11 0
BBX 15 15 -3 -4
BITMAP
0000
0000
0000
4000
A800
5000
1000
2000
4000
5000
A800
1000
0000
0000
0000
ENDCHAR
STARTCHAR uni0026
ENCODING 38
SWIDTH 1000 0
DWIDTH 11 0
BBX 15 15 -3 -4
BITMAP
0000
0000
0000
0000
6000
9000
9000
6000
A800
9000
6800
0000
0000
0000
0000
ENDCHAR
STARTCHAR uni0027
ENCODING 39
SWIDTH 1000 0
DWIDTH 11 0
BBX 15 15 -3 -4
BITMAP
0000
0000
0000
0000
4000
4000
0000
0000
0000
0000
0000
0000
0000
0000
0000
ENDCHAR
STARTCHAR uni0028
ENCODING 40
SWIDTH 1000 0
DWIDTH 11 0
BBX 15 15 -3 -4
BITMAP
0000
0000
0000
0000
1000
2000
2000
4000
4000
4000
2000
2000
1000
0000
0000
ENDCHAR
STARTCHAR uni0029
ENCODING 41
SWIDTH 1000 0
DWIDTH 11 0
BBX 15 15 -3 -4
BITMAP
0000
0000
0000
0000
4000
2000
2000
1000
1000
1000
2000
2000
4000
0000
0000
ENDCHAR
STARTCHAR uni002A
ENCODING 42
SWIDTH 1000 0
DWIDTH 11 0
BBX 15 15 -3 -4
BITMAP
0000
0000
0000
0000
0000
2000
A800
7000
A800
2000
0000
0000
0000
0000
0000
ENDCHAR
STARTCHAR uni002B
ENCODING 43
SWIDTH 1000 0
DWIDTH 11 0
BBX 15 15 -3 -4
BITMAP
0000
0000
0000
0000
0000
2000
2000
F800
2000
2000
0000
0000
0000
0000
0000
ENDCHAR
STARTCHAR uni002C
ENCODING 44
SWIDTH 1000 0
DWIDTH 11 0
BBX 15 15 -3 -4
BITMAP
0000
0000
0000
0000
0000
0000
0000
0000
0000
0000
4000
4000
8000
0000
0000
ENDCHAR
STARTCHAR uni002D
ENCODING 45
SWIDTH 1000 0
DWIDTH 11 0
BBX 15 15 -3 -4
BITMAP
0000
0000
0000
0000
0000
0000
0000
F800
0000
0000
0000
0000
0000
0000
0000
ENDCHAR
STARTCHAR uni002E
ENCODING 46
SWIDTH 1000 0
DWIDTH 11 0
BBX 15 15 -3 -4
BITMAP
0000
0000
0000
0000
0000
0000
0000
0000
0000
0000
4000
0000
0000
0000
0000
ENDCHAR
STARTCHAR uni002F
ENCODING 47
SWIDTH 1000 0
DWIDTH 11 0
BBX 15 15 -3 -4
BITMAP
0000
0000
0000
0000
0800
0800
1000
1000
2000
4000
4000
8000
8000
0000
0000
ENDCHAR
STARTCHAR uni0030
ENCODING 48
SWIDTH 1000 0
DWIDTH 11 0
BBX 15 15 -3 -4
BITMAP
0000
0000
0000
0000
7000
8800
9800
A800
C800
8800
7000
0000
0000
0000
0000
ENDCHAR
STARTCHAR uni0031
ENCODING 49
SWIDTH 1000 0
DWIDTH 11 0
BBX 15 15 -3 -4
BITMAP
0000
0000
0000
0000
2000
E000
2000
2000
2000
2000
F800
0000
0000
0000
0000
ENDCHAR
STARTCHAR uni0032
ENCODING 50
SWIDTH 1000 0
DWIDTH 11 0
BBX 15 15 -3 -4
BITMAP
0000
0000
0000
0000
7000
8800
0800
3000
4000
8000
F800
0000
0000
0000
0000
ENDCHAR
STARTCHAR uni0033
ENCODING 51
SWIDTH 1000 0
DWIDTH 11 0
BBX 15 15 -3 -4
BITMAP
0000
0000
0000
0000
7000
8800
0800
3000
0800
8800
7000
0000
0000
0000
0000
ENDCHAR
STARTCHAR uni0034
ENCODING 52
SWIDTH 1000 0
DWIDTH 11 0
BBX 15 15 -3 -4
BITMAP
0000
0000
0000
0000
3000
5000
5000
9000
9000
F800
1000
0000
0000
0000
0000
ENDCHAR
STARTCHAR uni0035
ENCODING 53
SWIDTH 1000 0
DWIDTH 11 0
BBX 15 15 -3 -4
BITMAP
0000
0000
0000
0000
F800
8000
8000
F000
0800
8800
7000
0000
0000
0000
0000
ENDCHAR
STARTCHAR uni0036
ENCODING 54
SWIDTH 1000 0
DWIDTH 11 0
BBX 15 15 -3 -4
BITMAP
0000
0000
0000
0000
7000
8800
8000
F000
8800
8800
7000
0000
0000
0000
0000
ENDCHAR
STARTCHAR uni0037
ENCODING 55
SWIDTH 1000 0
DWIDTH 11 0
BBX 15 15 -3 -4
BITMAP
0000
0000
0000
0000
F800
0800
1000
1000
2000
2000
2000
0000
0000
0000
0000
ENDCHAR
STARTCHAR uni0038
ENCODING 56
SWIDTH 1000 0
DWIDTH 11 0
BBX 15 15 -3 -4
BITMAP
0000
0000
0000
0000
7000
8800
8800
7000
8800
8800
7000
0000
0000
0000
0000
ENDCHAR
STARTCHAR uni0039
ENCODING 57
SWIDTH 1000 0
DWIDTH 11 0
BBX 15 15 -3 -4
BITMAP
0000
0000
0000
0000
7000
8800
8800
7800
0800
8800
7000
0000
0000
0000
0000
ENDCHAR
STARTCHAR uni003A
ENCODING 58
SWIDTH 1000 0
DWIDTH 11 0
BBX 15 15 -3 -4
BITMAP
0000
0000
0000
0000
0000
0000
4000
0000
0000
0000
4000
0000
0000
0000
0000
ENDCHAR
STARTCHAR uni003B
ENCODING 59
SWIDTH 1000 0
DWIDTH 11 0
BBX 15 15 -3 -4
BITMAP
0000
0000
0000
0000
0000
0000
4000
0000
0000
0000
4000
4000
8000
0000
0000
ENDCHAR
STARTCHAR uni003C
ENCODING 60
SWIDTH 1000 0
DWIDTH 11 0
BBX 15 15 -3 -4
BITMAP
0000
0000
0000
0000
0000
1800
6000
8000
6000
1800
0000
0000
0000
0000
0000
ENDCHAR
STARTCHAR uni003D
ENCODING 61
SWIDTH 1000 0
DWIDTH 11 0
BBX 15 15 -3 -4
BITMAP
0000
0000
0000
0000
0000
0000
F800
0000
F800
0000
0000
0000
0000
0000
0000
ENDCHAR
STARTCHAR uni003E
ENCODING 62
SWIDTH 1000 0
DWIDTH 11 0
BBX 15 15 -3 -4
BITMAP
0000
0000
0000
0000
0000
C000
3000
0800
3000
C000
0000
0000
0000
0000
0000
ENDCHAR
STARTCHAR uni003F
ENCODING 63
SWIDTH 1000 0
DWIDTH 11 0
BBX 15 15 -3 -4
BITMAP
0000
0000
0000
0000
7000
8800
0800
1000
2000
0000
2000
0000
0000
0000
0000
ENDCHAR
STARTCHAR uni0040
ENCODING 64
SWIDTH 1000 0
DWIDTH 11 0
BBX 15 15 -3 -4
BITMAP
0000
0000
0000
0000
7800
8400
9C00
A400
A400
BC00
8000
7800
0000
0000
0000
ENDCHAR
STARTCHAR uni0041
ENCODING 65
SWIDTH 1000 0
DWIDTH 11 0
BBX 15 15 -3 -4
BITMAP
0000
0000
0000
0000
7000
8800
8800
8800
F800
8800
8800
0000
0000
0000
0000
ENDCHAR
STARTCHAR uni0042
ENCODING 66
SWIDTH 1000 0
DWIDTH 11 0
BBX 15 15 -3 -4
BITMAP
0000
0000
0000
0000
F000
8800
8800
F000
8800
8800
F000
0000
0000
0000
0000
ENDCHAR
STARTCHAR uni0043
ENCODING 67
SWIDTH 1000 0
DWIDTH 11 0
BBX 15 15 -3 -4
BITMAP
0000
0000
0000
0000
7000
8800
8000
8000
8000
8800
7000
0000
0000
0000
0000
ENDCHAR
STARTCHAR uni0044
ENCODING 68
SWIDTH 1000 0
DWIDTH 11 0
BBX 15 15 -3 -4
BITMAP
0000
0000
0000
0000
F000
8800
8800
8800
8800
8800
F000
0000
0000
0000
0000
ENDCHAR
STARTCHAR uni0045
ENCODING 69
SWIDTH 1000 0
DWIDTH 11 0
BBX 15 15 -3 -4
BITMAP
0000
0000
0000
0000
F800
8000
8000
F000
8000
8000
F800
0000
0000
0000
0000
ENDCHAR
STARTCHAR uni0046
ENCODING 70
SWIDTH 1000 0
DWIDTH 11 0
BBX 15 15 -3 -4
BITMAP
0000
0000
0000
0000
F800
8000
8000
F000
8000
8000
8000
0000
0000
0000
0000
ENDCHAR
STARTCHAR uni0047
ENCODING 71
SWIDTH 1000 0
DWIDTH 11 0
BBX 15 15 -3 -4
BITMAP
0000
0000
0000
0000
7000
8800
8000
8000
9800
8800
7800
0000
0000
0000
0000
ENDCHAR
STARTCHAR uni0048
ENCODING 72
SWIDTH 1000 0
DWIDTH 11 0
BBX 15 15 -3 -4
BITMAP
0000
0000
0000
0000
8800
8800
8800
F800
8800
8800
8800
0000
0000
0000
0000
ENDCHAR
STARTCHAR uni0049
ENCODING 73
SWIDTH 1000 0
DWIDTH 11 0
BBX 15 15 -3 -4
BITMAP
0000
0000
0000
0000
E000
4000
4000
4000
4000
4000
E000
0000
0000
0000
0000
ENDCHAR
STARTCHAR uni004A
ENCODING 74
SWIDTH 1000 0
DWIDTH 11 0
BBX 15 15 -3 -4
BITMAP
0000
0000
0000
0000
0800
0800
0800
0800
8800
8800
7000
0000
0000
0000
0000
ENDCHAR
STARTCHAR uni004B
ENCODING 75
SWIDTH 1000 0
DWIDTH 11 0
BBX 15 15 -3 -4
BITMAP
0000
0000
0000
0000
8800
9000
A000
C000
A000
9000
8800
0000
0000
0000
0000
ENDCHAR
STARTCHAR uni004C
ENCODING 76
SWIDTH 1000 0
DWIDTH 11 0
BBX 15 15 -3 -4
BITMAP
0000
0000
0000
0000
8000
8000
8000
8000
8000
8000
F000
0000
0000
0000
0000
ENDCHAR
STARTCHAR uni004D
ENCODING 77
SWIDTH 1000 0
DWIDTH 11 0
BBX 15 15 -3 -4
BITMAP
0000
0000
0000
0000
8200
C600
AA00
9200
8200
8200
8200
0000
0000
0000
0000
ENDCHAR
STARTCHAR uni004E
ENCODING 78
SWIDTH 1000 0
DWIDTH 11 0
BBX 15 15 -3 -4
BITMAP
0000
0000
0000
0000
8800
8800
C800
A800
9800
8800
8800
0000
0000
0000
0000
ENDCHAR
STARTCHAR uni004F
ENCODING 79
SWIDTH 1000 0
DWIDTH 11 0
BBX 15 15 -3 -4
BITMAP
0000
0000
0000
0000
7000
8800
8800
8800
8800
8800
7000
0000
0000
0000
0000
ENDCHAR
STARTCHAR uni0050
ENCODING 80
SWIDTH 1000 0
DWIDTH 11 0
BBX 15 15 -3 -4
BITMAP
0000
0000
0000
0000
F000
8800
8800
8800
F000
8000
8000
0000
0000
0000
0000
ENDCHAR
STARTCHAR uni0051
ENCODING 81
SWIDTH 1000 0
DWIDTH 11 0
BBX 15 15 -3 -4
BITMAP
0000
0000
0000
0000
7000
8800
8800
8800
A800
9000
6800
0000
0000
0000
0000
ENDCHAR
STARTCHAR uni0052
ENCODING 82
SWIDTH 1000 0
DWIDTH 11 0
BBX 15 15 -3 -4
BITMAP
0000
0000
0000
0000
F000
8800
8800
F000
8800
8800
8800
0000
0000
0000
0000
ENDCHAR
STARTCHAR uni0053
ENCODING 83
SWIDTH 1000 0
DWIDTH 11 0
BBX 15 15 -3 -4
BITMAP
0000
0000
0000
0000
7000
8800
8000
7000
0800
8800
7000
0000
0000
0000
0000
ENDCHAR
STARTCHAR uni0054
ENCODING 84
SWIDTH 1000 0
DWIDTH 11 0
BBX 15 15 -3 -4
BITMAP
0000
0000
0000
0000
F800
2000
2000
2000
2000
2000
2000
0000
0000
0000
0000
ENDCHAR
STARTCHAR uni0055
ENCODING 85
SWIDTH 1000 0
DWIDTH 11 0
BBX 15 15 -3 -4
BITMAP
0000
0000
0000
0000
8800
8800
8800
8800
8800
8800
7000
0000
0000
0000
0000
ENDCHAR
STARTCHAR uni0056
ENCODING 86
SWIDTH 1000 0
DWIDTH 11 0
BBX 15 15 -3 -4
BITMAP
0000
0000
0000
0000
8800
8800
8800
5000
5000
2000
2000
0000
0000
0000
0000
ENDCHAR
STARTCHAR uni0057
ENCODING 87
SWIDTH 1000 0
DWIDTH 11 0
BBX 15 15 -3 -4
BITMAP
0000
0000
0000
0000
9200
9200
9200
AA00
AA00
4400
4400
0000
0000
0000
0000
ENDCHAR
STARTCHAR uni0058
ENCODING 88
SWIDTH 1000 0
DWIDTH 11 0
BBX 15 15 -3 -4
BITMAP
0000
0000
0000
0000
8800
8800
5000
2000
5000
8800
8800
0000
0000
0000
0000
ENDCHAR
STARTCHAR uni0059
ENCODING 89
SWIDTH 1000 0
DWIDTH 11 0
BBX 15 15 -3 -4
BITMAP
0000
0000
0000
0000
8800
8800
5000
5000
2000
2000
2000
0000
0000
0000
0000
ENDCHAR
STARTCHAR uni005A
ENCODING 90
SWIDTH 1000 0
DWIDTH 11 0
BBX 15 15 -3 -4
BITMAP
0000
0000
0000
0000
F800
0800
1000
2000
4000
8000
F800
0000
0000
0000
0000
ENDCHAR
STARTCHAR uni005B
ENCODING 91
SWIDTH 1000 0
DWIDTH 11 0
BBX 15 15 -3 -4
BITMAP
0000
0000
0000
0000
7000
4000
4000
4000
4000
4000
4000
4000
7000
0000
0000
ENDCHAR
STARTCHAR uni005C
ENCODING 92
SWIDTH 1000 0
DWIDTH 11 0
BBX 15 15 -3 -4
BITMAP
0000
0000
0000
0000
8000
8000
4000
4000
2000
1000
1000
0800
0800
0000
0000
ENDCHAR
STARTCHAR uni005D
ENCODING 93
SWIDTH 1000 0
DWIDTH 11 0
BBX 15 15 -3 -4
BITMAP
0000
0000
0000
0000
7000
1000
1000
1000
1000
1000
1000
1000
7000
0000
0000
ENDCHAR
STARTCHAR uni005E
ENCODING 94
SWIDTH 1000 0
DWIDTH 11 0
BBX 15 15 -3 -4
BITMAP
0000
0000
0000
0000
2000
5000
8800
0000
0000
0000
0000
0000
0000
0000
0000
ENDCHAR
STARTCHAR uni005F
ENCODING 95
SWIDTH 1000 0
DWIDTH 11 0
BBX 15 15 -3 -4
BITMAP
0000
0000
0000
0000
0000
0000
0000
0000
0000
0000
0000
0000
F800
0000
0000
ENDCHAR
STARTCHAR uni0060
ENCODING 96
SWIDTH 1000 0
DWIDTH 11 0
BBX 15 15 -3 -4
BITMAP
0000
0000
0000
0000
4000
2000
0000
0000
0000
0000
0000
0000
0000
0000
0000
ENDCHAR
STARTCHAR uni0061
ENCODING 97
SWIDTH 1000 0
DWIDTH 11 0
BBX 15 15 -3 -4
BITMAP
0000
0000
0000
0000
0000
0000
7000
0800
7800
8800
7800
0000
0000
0000
0000
ENDCHAR
STARTCHAR uni0062
ENCODING 98
SWIDTH 1000 0
DWIDTH 11 0
BBX 15 15 -3 -4
BITMAP
0000
0000
0000
0000
8000
8000
F000
8800
8800
8800
F000
0000
0000
0000
0000
ENDCHAR
STARTCHAR uni0063
ENCODING 99
SWIDTH 1000 0
DWIDTH 11 0
BBX 15 15 -3 -4
BITMAP
0000
0000
0000
0000
0000
0000
7000
8800
8000
8800
7000
0000
0000
0000
0000
ENDCHAR
STARTCHAR uni0064
ENCODING 100
SWIDTH 1000 0
DWIDTH 11 0
BBX 15 15 -3 -4
BITMAP
0000
0000
0000
0000
0800
0800
7800
8800
8800
8800
7800
0000
0000
0000
0000
ENDCHAR
STARTCHAR uni0065
ENCODING 101
SWIDTH 1000 0
DWIDTH 11 0
BBX 15 15 -3 -4
BITMAP
0000
0000
0000
0000
0000
0000
7000
8800
F800
8000
7000
0000
0000
0000
0000
ENDCHAR
STARTCHAR uni0066
ENCODING 102
SWIDTH 1000 0
DWIDTH 11 0
BBX 15 15 -3 -4
BITMAP
0000
0000
0000
0000
3000
4000
F000
4000
4000
4000
4000
0000
0000
0000
0000
ENDCHAR
STARTCHAR uni0067
ENCODING 103
SWIDTH 1000 0
DWIDTH 11 0
BBX 15 15 -3 -4
BITMAP
0000
0000
0000
0000
0000
0000
7800
8800
8800
8800
7800
0800
7000
0000
0000
ENDCHAR
STARTCHAR uni0068
ENCODING 104
SWIDTH 1000 0
DWIDTH 11 0
BBX 15 15 -3 -4
BITMAP
0000
0000
0000
0000
8000
8000
F000
8800
8800
8800
8800
0000
0000
0000
0000
ENDCHAR
STARTCHAR uni0069
ENCODING 105
SWIDTH 1000 0
DWIDTH 11 0
BBX 15 15 -3 -4
BITMAP
0000
0000
0000
0000
4000
0000
C000
4000
4000
4000
E000
0000
0000
0000
0000
ENDCHAR
STARTCHAR uni006A
ENCODING 106
SWIDTH 1000 0
DWIDTH 11 0
BBX 15 15 -3 -4
BITMAP
0000
0000
0000
0000
2000
0000
E000
2000
2000
2000
2000
2000
C000
0000
0000
ENDCHAR
STARTCHAR uni006B
ENCODING 107
SWIDTH 1000 0
DWIDTH 11 0
BBX 15 15 -3 -4
BITMAP
0000
0000
0000
0000
8000
8000
8800
9000
E000
9000
8800
0000
0000
0000
0000
ENDCHAR
STARTCHAR uni006C
ENCODING 108
SWIDTH 1000 0
DWIDTH 11 0
BBX 15 15 -3 -4
BITMAP
0000
0000
0000
0000
C000
4000
4000
4000
4000
4000
6000
0000
0000
0000
0000
ENDCHAR
STARTCHAR uni006D
ENCODING 109
SWIDTH 1000 0
DWIDTH 11 0
BBX 15 15 -3 -4
BITMAP
0000
0000
0000
0000
0000
0000
EC00
9200
9200
9200
9200
0000
0000
0000
0000
ENDCHAR
STARTCHAR uni006E
ENCODING 110
SWIDTH 1000 0
DWIDTH 11 0
BBX 15 15 -3 -4
BITMAP
0000
0000
0000
0000
0000
0000
F000
8800
8800
8800
8800
0000
0000
0000
0000
ENDCHAR
STARTCHAR uni006F
ENCODING 111
SWIDTH 1000 0
DWIDTH 11 0
BBX 15 15 -3 -4
BITMAP
0000
0000
0000
0000
0000
0000
7000
8800
8800
8800
7000
0000
0000
0000
0000
ENDCHAR
STARTCHAR uni0070
ENCODING 112
SWIDTH 1000 0
DWIDTH 11 0
BBX 15 15 -3 -4
BITMAP
0000
0000
0000
0000
0000
0000
F000
8800
8800
8800
F000
8000
8000
0000
0000
ENDCHAR
STARTCHAR uni0071
ENCODING 113
SWIDTH 1000 0
DWIDTH 11 0
BBX 15 15 -3 -4
BITMAP
0000
0000
0000
0000
0000
0000
7800
8800
8800
8800
7800
0800
0800
0000
0000
ENDCHAR
STARTCHAR uni0072
ENCODING 114
SWIDTH 1000 0
DWIDTH 11 0
BBX 15 15 -3 -4
BITMAP
0000
0000
0000
0000
0000
0000
B000
C000
8000
8000
8000
0000
0000
0000
0000
ENDCHAR
STARTCHAR uni0073
ENCODING 115
SWIDTH 1000 0
DWIDTH 11 0
BBX 15 15 -3 -4
BITMAP
0000
0000
0000
0000
0000
0000
7800
8000
7000
0800
F000
0000
0000
0000
0000
ENDCHAR
STARTCHAR uni0074
ENCODING 116
SWIDTH 1000 0
DWIDTH 11 0
BBX 15 15 -3 -4
BITMAP
0000
0000
0000
0000
4000
4000
F000
4000
4000
4000
3000
0000
0000
0000
0000
ENDCHAR
STARTCHAR uni0075
ENCODING 117
SWIDTH 1000 0
DWIDTH 11 0
BBX 15 15 -3 -4
BITMAP
0000
0000
0000
0000
0000
0000
8800
8800
8800
8800
7800
0000
0000
0000
0000
ENDCHAR
STARTCHAR uni0076
ENCODING 118
SWIDTH 1000 0
DWIDTH 11 0
BBX 15 15 -3 -4
BITMAP
0000
0000
0000
0000
0000
0000
8800
8800
5000
5000
2000
0000
0000
0000
0000
ENDCHAR
STARTCHAR uni0077
ENCODING 119
SWIDTH 1000 0
DWIDTH 11 0
BBX 15 15 -3 -4
BITMAP
0000
0000
0000
0000
0000
0000
9200
9200
AA00
4400
4400
0000
0000
0000
0000
ENDCHAR
STARTCHAR uni0078
ENCODING 120
SWIDTH 1000 0
DWIDTH 11 0
BBX 15 15 -3 -4
BITMAP
0000
0000
0000
0000
0000
0000
8800
5000
2000
5000
8800
0000
0000
0000
0000
ENDCHAR
STARTCHAR uni0079
ENCODING 121
SWIDTH 1000 0
DWIDTH 11 0
BBX 15 15 -3 -4
BITMAP
0000
0000
0000
0000
0000
0000
8800
8800
8800
8800
7800
0800
7000
0000
0000
ENDCHAR
STARTCHAR uni007A
ENCODING 122
SWIDTH 1000 0
DWIDTH 11 0
BBX 15 15 -3 -4
BITMAP
0000
0000
0000
0000
0000
0000
F800
1000
2000
4000
F800
0000
0000
0000
0000
ENDCHAR
STARTCHAR uni007B
ENCODING 123
SWIDTH 1000 0
DWIDTH 11 0
BBX 15 15 -3 -4
BITMAP
0000
0000
0000
0000
1800
2000
2000
2000
4000
2000
2000
2000
1800
0000
0000
ENDCHAR
STARTCHAR uni007C
ENCODING 124
SWIDTH 1000 0
DWIDTH 11 0
BBX 15 15 -3 -4
BITMAP
0000
0000
0000
0000
4000
4000
4000
4000
4000
4000
4000
4000
4000
0000
0000
ENDCHAR
STARTCHAR uni007D
ENCODING 125
SWIDTH 1000 0
DWIDTH 11 0
BBX 15 15 -3 -4
BITMAP
0000
0000
0000
0000
6000
1000
1000
1000
0800
1000
1000
1000
6000
0000
0000
ENDCHAR
STARTCHAR uni007E
ENCODING 126
SWIDTH 1000 0
DWIDTH 11 0
BBX 15 15 -3 -4
BITMAP
0000
0000
0000
0000
0000
0000
4000
A800
1000
0000
0000
0000
0000
0000
0000
ENDCHAR
STARTCHAR .notdef
ENCODING 65534
SWIDTH 1000 0
DWIDTH 11 0
BBX 15 15 -3 -4
BITMAP
0000
0000
F800
8800
8800
8800
8800
8800
8800
8800
8800
8800
F800
0000
0000
ENDCHAR
ENDFONT
